# xmcd
#
# Track frame offsets:
#	150
#	17180
#	37262
#	54985
#
# Disc length: 988 seconds
# Revision: 2
# Processed by: cddbd v1.5.2PL0 Copyright (c) Steve Scherf et al.
# Submitted via: dBpowerAMP V12.0
#
DISCID=2f03da04
DTITLE=LeAnn Rimes - How Do I Live [DE] [Maxi]
DYEAR=1997
DGENRE=Country*
TTITLE0=How Do I Live (Radio Edit)
TTITLE1=How Do I Live (Extended Version)
TTITLE2=How Do I Live (Mr. Mig Remix Dance Radio Edit)
TTITLE3=How Do I Live (Mr. Mig Remix Club Radio Edit)
EXTD=
EXTT0=
EXTT1=
EXTT2=
EXTT3=
PLAYORDER=
